#
# object Hedra001
#

v  0.00000 0.68866 -0.00000
v  0.48696 0.00000 0.48696
v  0.48696 0.00000 -0.48696
v  0.00000 -0.68866 -0.00000
v  -0.48696 0.00000 -0.48696
v  -0.48696 0.00000 0.48696
# 6 vertices

vn 0.81650 0.57735 -0.00000
vn 0.00000 -0.57735 -0.81650
vn -0.81650 0.57735 -0.00000
vn 0.00000 -0.57735 0.81650
vn -0.00000 0.57735 -0.81650
vn -0.00000 0.57735 0.81650
vn 0.81650 -0.57735 -0.00000
vn -0.81650 -0.57735 0.00000
# 8 vertex normals

vt 0.48259 0.94912 0.00000
vt 0.15686 0.48846 0.00000
vt 0.80833 0.48846 0.00000
vt 0.48259 0.02779 0.00000
# 4 texture coords

o Hedra001
g Hedra001
f 1/1/1 2/2/1 3/3/1 
f 3/1/2 4/2/2 5/3/2 
f 5/2/3 6/3/3 1/4/3 
f 6/2/4 4/3/4 2/4/4 
f 3/2/5 5/3/5 1/4/5 
f 6/2/6 2/3/6 1/4/6 
f 2/2/7 4/3/7 3/4/7 
f 6/1/8 5/2/8 4/3/8 
# 8 faces